<svg width="64" height="64" viewBox="0 0 64 64" fill="none" xmlns="http://www.w3.org/2000/svg">
  <defs>
    <linearGradient id="grad1" x1="0%" y1="0%" x2="100%" y2="100%">
      <stop offset="0%" style="stop-color:#a855f7;stop-opacity:1" />
      <stop offset="50%" style="stop-color:#6366f1;stop-opacity:1" />
      <stop offset="100%" style="stop-color:#0ea5e9;stop-opacity:1" />
    </linearGradient>
  </defs>

  <!-- Background circle -->
  <circle cx="32" cy="32" r="30" fill="url(#grad1)"/>

  <!-- Musical note -->
  <path d="M 22 13 Q 25 11 28 13 Q 30 15 29 20 L 29 40 Q 29 46 24 46 Q 19 46 19 41 Q 19 38 22 37 Q 25 36 27 38 L 27 20 Q 37 17 40 24 Q 42 29 38 32"
        stroke="#fbbf24" stroke-width="2.5" fill="none" stroke-linecap="round"/>

  <!-- AI nodes -->
  <circle cx="16" cy="25" r="2" fill="#fff"/>
  <circle cx="46" cy="25" r="2" fill="#fff"/>
  <circle cx="16" cy="37" r="2" fill="#fff"/>
  <circle cx="46" cy="37" r="2" fill="#fff"/>

  <!-- Neural connections -->
  <line x1="18" y1="26" x2="28" y2="31" stroke="#fff" stroke-width="1" opacity="0.6"/>
  <line x1="44" y1="26" x2="34" y2="31" stroke="#fff" stroke-width="1" opacity="0.6"/>

  <!-- Center glow -->
  <circle cx="32" cy="31" r="3" fill="#fbbf24" opacity="0.9"/>
</svg>
